<mxfile host="Electron" modified="2023-06-06T09:17:57.275Z" agent="Mozilla/5.0 (Windows NT 10.0; Win64; x64) AppleWebKit/537.36 (KHTML, like Gecko) draw.io/21.2.8 Chrome/112.0.5615.165 Electron/24.2.0 Safari/537.36" etag="M69nxR6E1mwyY9Ms0gCg" version="21.2.8" type="device">
  <diagram name="Page-1" id="nlhhbtP6zZRvHLScSK6n">
    <mxGraphModel dx="2069" dy="1822" grid="1" gridSize="10" guides="1" tooltips="1" connect="1" arrows="1" fold="1" page="1" pageScale="1" pageWidth="850" pageHeight="1100" math="0" shadow="0">
      <root>
        <mxCell id="0" />
        <mxCell id="1" parent="0" />
        <mxCell id="STgfukZN8vqaTMadqIm4-4" style="edgeStyle=orthogonalEdgeStyle;rounded=0;orthogonalLoop=1;jettySize=auto;html=1;entryX=0;entryY=0.5;entryDx=0;entryDy=0;" parent="1" source="STgfukZN8vqaTMadqIm4-1" target="STgfukZN8vqaTMadqIm4-2" edge="1">
          <mxGeometry relative="1" as="geometry" />
        </mxCell>
        <mxCell id="STgfukZN8vqaTMadqIm4-10" style="edgeStyle=orthogonalEdgeStyle;rounded=0;orthogonalLoop=1;jettySize=auto;html=1;" parent="1" source="STgfukZN8vqaTMadqIm4-1" target="STgfukZN8vqaTMadqIm4-8" edge="1">
          <mxGeometry relative="1" as="geometry" />
        </mxCell>
        <mxCell id="STgfukZN8vqaTMadqIm4-15" style="edgeStyle=orthogonalEdgeStyle;rounded=0;orthogonalLoop=1;jettySize=auto;html=1;entryX=1;entryY=0.5;entryDx=0;entryDy=0;" parent="1" source="STgfukZN8vqaTMadqIm4-1" target="STgfukZN8vqaTMadqIm4-7" edge="1">
          <mxGeometry relative="1" as="geometry" />
        </mxCell>
        <mxCell id="STgfukZN8vqaTMadqIm4-16" style="edgeStyle=orthogonalEdgeStyle;rounded=0;orthogonalLoop=1;jettySize=auto;html=1;entryX=0.022;entryY=0.288;entryDx=0;entryDy=0;entryPerimeter=0;" parent="1" source="STgfukZN8vqaTMadqIm4-1" target="STgfukZN8vqaTMadqIm4-3" edge="1">
          <mxGeometry relative="1" as="geometry" />
        </mxCell>
        <mxCell id="STgfukZN8vqaTMadqIm4-17" style="edgeStyle=orthogonalEdgeStyle;rounded=0;orthogonalLoop=1;jettySize=auto;html=1;" parent="1" source="STgfukZN8vqaTMadqIm4-1" target="STgfukZN8vqaTMadqIm4-5" edge="1">
          <mxGeometry relative="1" as="geometry" />
        </mxCell>
        <mxCell id="STgfukZN8vqaTMadqIm4-18" style="edgeStyle=orthogonalEdgeStyle;rounded=0;orthogonalLoop=1;jettySize=auto;html=1;" parent="1" source="STgfukZN8vqaTMadqIm4-1" target="STgfukZN8vqaTMadqIm4-6" edge="1">
          <mxGeometry relative="1" as="geometry" />
        </mxCell>
        <mxCell id="STgfukZN8vqaTMadqIm4-39" style="edgeStyle=orthogonalEdgeStyle;rounded=0;orthogonalLoop=1;jettySize=auto;html=1;entryX=1;entryY=0.5;entryDx=0;entryDy=0;" parent="1" source="STgfukZN8vqaTMadqIm4-1" target="STgfukZN8vqaTMadqIm4-38" edge="1">
          <mxGeometry relative="1" as="geometry" />
        </mxCell>
        <mxCell id="SNf042CvBTTP_pjoU64A-9" style="edgeStyle=orthogonalEdgeStyle;rounded=0;orthogonalLoop=1;jettySize=auto;html=1;entryX=0.025;entryY=0.404;entryDx=0;entryDy=0;entryPerimeter=0;" edge="1" parent="1" source="STgfukZN8vqaTMadqIm4-1" target="SNf042CvBTTP_pjoU64A-8">
          <mxGeometry relative="1" as="geometry" />
        </mxCell>
        <mxCell id="STgfukZN8vqaTMadqIm4-1" value="User" style="shape=umlActor;verticalLabelPosition=bottom;verticalAlign=top;html=1;outlineConnect=0;" parent="1" vertex="1">
          <mxGeometry x="270" y="140" width="30" height="60" as="geometry" />
        </mxCell>
        <mxCell id="STgfukZN8vqaTMadqIm4-2" value="Chỉnh ảnh đại diện&lt;br&gt;" style="ellipse;whiteSpace=wrap;html=1;" parent="1" vertex="1">
          <mxGeometry x="390" y="110" width="120" height="80" as="geometry" />
        </mxCell>
        <mxCell id="STgfukZN8vqaTMadqIm4-3" value="Giới thiệu cá nhân" style="ellipse;whiteSpace=wrap;html=1;" parent="1" vertex="1">
          <mxGeometry x="380" y="230" width="120" height="80" as="geometry" />
        </mxCell>
        <mxCell id="STgfukZN8vqaTMadqIm4-5" value="Thời hạn khóa" style="ellipse;whiteSpace=wrap;html=1;" parent="1" vertex="1">
          <mxGeometry x="270" y="330" width="120" height="80" as="geometry" />
        </mxCell>
        <mxCell id="STgfukZN8vqaTMadqIm4-6" value="Tài khoản&lt;br&gt;Mật khẩu" style="ellipse;whiteSpace=wrap;html=1;" parent="1" vertex="1">
          <mxGeometry x="140" y="260" width="120" height="80" as="geometry" />
        </mxCell>
        <mxCell id="STgfukZN8vqaTMadqIm4-7" value="Tên hiển thị" style="ellipse;whiteSpace=wrap;html=1;" parent="1" vertex="1">
          <mxGeometry x="260" width="120" height="80" as="geometry" />
        </mxCell>
        <mxCell id="STgfukZN8vqaTMadqIm4-8" value="Chức danh" style="ellipse;whiteSpace=wrap;html=1;" parent="1" vertex="1">
          <mxGeometry x="120" y="20" width="120" height="80" as="geometry" />
        </mxCell>
        <mxCell id="STgfukZN8vqaTMadqIm4-27" style="edgeStyle=orthogonalEdgeStyle;rounded=0;orthogonalLoop=1;jettySize=auto;html=1;" parent="1" source="STgfukZN8vqaTMadqIm4-19" target="STgfukZN8vqaTMadqIm4-26" edge="1">
          <mxGeometry relative="1" as="geometry" />
        </mxCell>
        <mxCell id="STgfukZN8vqaTMadqIm4-47" style="edgeStyle=orthogonalEdgeStyle;rounded=0;orthogonalLoop=1;jettySize=auto;html=1;" parent="1" source="STgfukZN8vqaTMadqIm4-19" target="STgfukZN8vqaTMadqIm4-45" edge="1">
          <mxGeometry relative="1" as="geometry" />
        </mxCell>
        <mxCell id="SNf042CvBTTP_pjoU64A-29" style="edgeStyle=orthogonalEdgeStyle;rounded=0;orthogonalLoop=1;jettySize=auto;html=1;" edge="1" parent="1" source="STgfukZN8vqaTMadqIm4-19" target="STgfukZN8vqaTMadqIm4-56">
          <mxGeometry relative="1" as="geometry" />
        </mxCell>
        <mxCell id="SNf042CvBTTP_pjoU64A-30" style="edgeStyle=orthogonalEdgeStyle;rounded=0;orthogonalLoop=1;jettySize=auto;html=1;entryX=0.619;entryY=-0.041;entryDx=0;entryDy=0;entryPerimeter=0;" edge="1" parent="1" source="STgfukZN8vqaTMadqIm4-19" target="STgfukZN8vqaTMadqIm4-55">
          <mxGeometry relative="1" as="geometry" />
        </mxCell>
        <mxCell id="SNf042CvBTTP_pjoU64A-31" style="edgeStyle=orthogonalEdgeStyle;rounded=0;orthogonalLoop=1;jettySize=auto;html=1;entryX=1;entryY=0.5;entryDx=0;entryDy=0;" edge="1" parent="1" source="STgfukZN8vqaTMadqIm4-19" target="STgfukZN8vqaTMadqIm4-52">
          <mxGeometry relative="1" as="geometry" />
        </mxCell>
        <mxCell id="SNf042CvBTTP_pjoU64A-32" style="edgeStyle=orthogonalEdgeStyle;rounded=0;orthogonalLoop=1;jettySize=auto;html=1;entryX=0.624;entryY=0.025;entryDx=0;entryDy=0;entryPerimeter=0;" edge="1" parent="1" source="STgfukZN8vqaTMadqIm4-19" target="STgfukZN8vqaTMadqIm4-48">
          <mxGeometry relative="1" as="geometry" />
        </mxCell>
        <mxCell id="STgfukZN8vqaTMadqIm4-19" value="Kho nhỏ" style="shape=umlActor;verticalLabelPosition=bottom;verticalAlign=top;html=1;outlineConnect=0;" parent="1" vertex="1">
          <mxGeometry x="1060" y="130" width="30" height="60" as="geometry" />
        </mxCell>
        <mxCell id="STgfukZN8vqaTMadqIm4-26" value="Chủ sở hữu" style="ellipse;whiteSpace=wrap;html=1;" parent="1" vertex="1">
          <mxGeometry x="1060" y="-20" width="120" height="80" as="geometry" />
        </mxCell>
        <mxCell id="STgfukZN8vqaTMadqIm4-36" style="edgeStyle=orthogonalEdgeStyle;rounded=0;orthogonalLoop=1;jettySize=auto;html=1;" parent="1" source="STgfukZN8vqaTMadqIm4-29" target="STgfukZN8vqaTMadqIm4-35" edge="1">
          <mxGeometry relative="1" as="geometry" />
        </mxCell>
        <mxCell id="STgfukZN8vqaTMadqIm4-41" style="edgeStyle=orthogonalEdgeStyle;rounded=0;orthogonalLoop=1;jettySize=auto;html=1;" parent="1" source="STgfukZN8vqaTMadqIm4-29" target="STgfukZN8vqaTMadqIm4-40" edge="1">
          <mxGeometry relative="1" as="geometry" />
        </mxCell>
        <mxCell id="SNf042CvBTTP_pjoU64A-7" style="edgeStyle=orthogonalEdgeStyle;rounded=0;orthogonalLoop=1;jettySize=auto;html=1;exitX=1;exitY=0.3333333333333333;exitDx=0;exitDy=0;exitPerimeter=0;" edge="1" parent="1" source="STgfukZN8vqaTMadqIm4-29">
          <mxGeometry relative="1" as="geometry">
            <mxPoint x="150" y="520" as="targetPoint" />
          </mxGeometry>
        </mxCell>
        <mxCell id="STgfukZN8vqaTMadqIm4-29" value="Role" style="shape=umlActor;verticalLabelPosition=bottom;verticalAlign=top;html=1;outlineConnect=0;" parent="1" vertex="1">
          <mxGeometry x="100" y="510" width="30" height="60" as="geometry" />
        </mxCell>
        <mxCell id="STgfukZN8vqaTMadqIm4-35" value="Tên role" style="ellipse;whiteSpace=wrap;html=1;" parent="1" vertex="1">
          <mxGeometry x="-70" y="600" width="120" height="80" as="geometry" />
        </mxCell>
        <mxCell id="STgfukZN8vqaTMadqIm4-38" value="ID&lt;br&gt;" style="ellipse;whiteSpace=wrap;html=1;" parent="1" vertex="1">
          <mxGeometry x="10" y="140" width="120" height="80" as="geometry" />
        </mxCell>
        <mxCell id="STgfukZN8vqaTMadqIm4-40" value="ID&lt;br&gt;" style="ellipse;whiteSpace=wrap;html=1;" parent="1" vertex="1">
          <mxGeometry x="110" y="630" width="120" height="80" as="geometry" />
        </mxCell>
        <mxCell id="STgfukZN8vqaTMadqIm4-42" value="ID&lt;br&gt;" style="ellipse;whiteSpace=wrap;html=1;" parent="1" vertex="1">
          <mxGeometry x="1180" y="100" width="120" height="80" as="geometry" />
        </mxCell>
        <mxCell id="SNf042CvBTTP_pjoU64A-16" style="edgeStyle=orthogonalEdgeStyle;rounded=0;orthogonalLoop=1;jettySize=auto;html=1;entryX=0;entryY=1;entryDx=0;entryDy=0;" edge="1" parent="1" source="STgfukZN8vqaTMadqIm4-44" target="SNf042CvBTTP_pjoU64A-14">
          <mxGeometry relative="1" as="geometry" />
        </mxCell>
        <mxCell id="SNf042CvBTTP_pjoU64A-17" style="edgeStyle=orthogonalEdgeStyle;rounded=0;orthogonalLoop=1;jettySize=auto;html=1;" edge="1" parent="1" source="STgfukZN8vqaTMadqIm4-44" target="SNf042CvBTTP_pjoU64A-10">
          <mxGeometry relative="1" as="geometry" />
        </mxCell>
        <mxCell id="SNf042CvBTTP_pjoU64A-18" style="edgeStyle=orthogonalEdgeStyle;rounded=0;orthogonalLoop=1;jettySize=auto;html=1;" edge="1" parent="1" source="STgfukZN8vqaTMadqIm4-44" target="SNf042CvBTTP_pjoU64A-12">
          <mxGeometry relative="1" as="geometry" />
        </mxCell>
        <mxCell id="SNf042CvBTTP_pjoU64A-19" style="edgeStyle=orthogonalEdgeStyle;rounded=0;orthogonalLoop=1;jettySize=auto;html=1;" edge="1" parent="1" source="STgfukZN8vqaTMadqIm4-44" target="SNf042CvBTTP_pjoU64A-11">
          <mxGeometry relative="1" as="geometry" />
        </mxCell>
        <mxCell id="SNf042CvBTTP_pjoU64A-20" style="edgeStyle=orthogonalEdgeStyle;rounded=0;orthogonalLoop=1;jettySize=auto;html=1;" edge="1" parent="1" source="STgfukZN8vqaTMadqIm4-44" target="SNf042CvBTTP_pjoU64A-15">
          <mxGeometry relative="1" as="geometry" />
        </mxCell>
        <mxCell id="STgfukZN8vqaTMadqIm4-44" value="Danh sách các file" style="ellipse;shape=doubleEllipse;margin=3;whiteSpace=wrap;html=1;align=center;" parent="1" vertex="1">
          <mxGeometry x="1530" y="170" width="110" height="60" as="geometry" />
        </mxCell>
        <mxCell id="STgfukZN8vqaTMadqIm4-45" value="Tiêu đề" style="ellipse;whiteSpace=wrap;html=1;align=center;" parent="1" vertex="1">
          <mxGeometry x="1180" y="290" width="130" height="80" as="geometry" />
        </mxCell>
        <mxCell id="STgfukZN8vqaTMadqIm4-48" value="Nội dung" style="ellipse;whiteSpace=wrap;html=1;align=center;" parent="1" vertex="1">
          <mxGeometry x="920" y="260" width="130" height="80" as="geometry" />
        </mxCell>
        <mxCell id="STgfukZN8vqaTMadqIm4-52" value="Trạng thái" style="ellipse;whiteSpace=wrap;html=1;align=center;" parent="1" vertex="1">
          <mxGeometry x="760" y="150" width="130" height="80" as="geometry" />
        </mxCell>
        <mxCell id="SNf042CvBTTP_pjoU64A-24" style="edgeStyle=orthogonalEdgeStyle;rounded=0;orthogonalLoop=1;jettySize=auto;html=1;" edge="1" parent="1" source="STgfukZN8vqaTMadqIm4-54" target="SNf042CvBTTP_pjoU64A-22">
          <mxGeometry relative="1" as="geometry" />
        </mxCell>
        <mxCell id="SNf042CvBTTP_pjoU64A-25" style="edgeStyle=orthogonalEdgeStyle;rounded=0;orthogonalLoop=1;jettySize=auto;html=1;entryX=0.333;entryY=0.993;entryDx=0;entryDy=0;entryPerimeter=0;" edge="1" parent="1" source="STgfukZN8vqaTMadqIm4-54" target="SNf042CvBTTP_pjoU64A-23">
          <mxGeometry relative="1" as="geometry" />
        </mxCell>
        <mxCell id="STgfukZN8vqaTMadqIm4-54" value="Danh sách người có quyền chỉnh sửa" style="ellipse;shape=doubleEllipse;margin=3;whiteSpace=wrap;html=1;align=center;" parent="1" vertex="1">
          <mxGeometry x="1270" y="-250" width="130" height="80" as="geometry" />
        </mxCell>
        <mxCell id="STgfukZN8vqaTMadqIm4-55" value="Mật khẩu" style="ellipse;whiteSpace=wrap;html=1;align=center;" parent="1" vertex="1">
          <mxGeometry x="1010" y="350" width="130" height="80" as="geometry" />
        </mxCell>
        <mxCell id="STgfukZN8vqaTMadqIm4-56" value="Link" style="ellipse;whiteSpace=wrap;html=1;" parent="1" vertex="1">
          <mxGeometry x="890" y="50" width="120" height="80" as="geometry" />
        </mxCell>
        <mxCell id="SNf042CvBTTP_pjoU64A-1" style="edgeStyle=orthogonalEdgeStyle;rounded=0;orthogonalLoop=1;jettySize=auto;html=1;exitX=0;exitY=0.3333333333333333;exitDx=0;exitDy=0;exitPerimeter=0;entryX=0.5;entryY=0.5;entryDx=0;entryDy=0;entryPerimeter=0;" edge="1" parent="1" source="STgfukZN8vqaTMadqIm4-29" target="STgfukZN8vqaTMadqIm4-29">
          <mxGeometry relative="1" as="geometry">
            <Array as="points">
              <mxPoint x="115" y="530" />
            </Array>
          </mxGeometry>
        </mxCell>
        <mxCell id="SNf042CvBTTP_pjoU64A-6" value="" style="shape=flexArrow;endArrow=classic;startArrow=classic;html=1;rounded=0;" edge="1" parent="1" source="STgfukZN8vqaTMadqIm4-29" target="STgfukZN8vqaTMadqIm4-1">
          <mxGeometry width="100" height="100" relative="1" as="geometry">
            <mxPoint x="360" y="480" as="sourcePoint" />
            <mxPoint x="460" y="380" as="targetPoint" />
            <Array as="points">
              <mxPoint x="260" y="390" />
            </Array>
          </mxGeometry>
        </mxCell>
        <mxCell id="SNf042CvBTTP_pjoU64A-8" value="Khóa tài khoản" style="ellipse;whiteSpace=wrap;html=1;" vertex="1" parent="1">
          <mxGeometry x="425" y="320" width="120" height="80" as="geometry" />
        </mxCell>
        <mxCell id="SNf042CvBTTP_pjoU64A-10" value="Tên file&lt;br&gt;" style="ellipse;whiteSpace=wrap;html=1;" vertex="1" parent="1">
          <mxGeometry x="1690" y="50" width="120" height="80" as="geometry" />
        </mxCell>
        <mxCell id="SNf042CvBTTP_pjoU64A-11" value="Ngày tải lên" style="ellipse;whiteSpace=wrap;html=1;" vertex="1" parent="1">
          <mxGeometry x="1860" y="220" width="120" height="80" as="geometry" />
        </mxCell>
        <mxCell id="SNf042CvBTTP_pjoU64A-12" value="ID kho" style="ellipse;whiteSpace=wrap;html=1;" vertex="1" parent="1">
          <mxGeometry x="1730" y="290" width="120" height="80" as="geometry" />
        </mxCell>
        <mxCell id="SNf042CvBTTP_pjoU64A-14" value="ID" style="ellipse;whiteSpace=wrap;html=1;" vertex="1" parent="1">
          <mxGeometry x="1630" y="-60" width="120" height="80" as="geometry" />
        </mxCell>
        <mxCell id="SNf042CvBTTP_pjoU64A-15" value="Dung lượng file" style="ellipse;whiteSpace=wrap;html=1;" vertex="1" parent="1">
          <mxGeometry x="1890" y="110" width="120" height="80" as="geometry" />
        </mxCell>
        <mxCell id="SNf042CvBTTP_pjoU64A-21" value="" style="shape=flexArrow;endArrow=classic;html=1;rounded=0;width=14.117647058823529;endSize=10.023529411764706;" edge="1" parent="1" source="STgfukZN8vqaTMadqIm4-44" target="STgfukZN8vqaTMadqIm4-42">
          <mxGeometry width="50" height="50" relative="1" as="geometry">
            <mxPoint x="1480" y="200" as="sourcePoint" />
            <mxPoint x="1530" y="150" as="targetPoint" />
          </mxGeometry>
        </mxCell>
        <mxCell id="SNf042CvBTTP_pjoU64A-22" value="ID người có quyền sửa" style="ellipse;whiteSpace=wrap;html=1;" vertex="1" parent="1">
          <mxGeometry x="1330" y="-440" width="120" height="80" as="geometry" />
        </mxCell>
        <mxCell id="SNf042CvBTTP_pjoU64A-23" value="ID kho" style="ellipse;whiteSpace=wrap;html=1;" vertex="1" parent="1">
          <mxGeometry x="1460" y="-320" width="120" height="80" as="geometry" />
        </mxCell>
        <mxCell id="SNf042CvBTTP_pjoU64A-27" value="" style="shape=flexArrow;endArrow=classic;html=1;rounded=0;width=14.117647058823529;endSize=10.023529411764706;exitX=0.227;exitY=0.918;exitDx=0;exitDy=0;exitPerimeter=0;entryX=1;entryY=0;entryDx=0;entryDy=0;" edge="1" parent="1" source="STgfukZN8vqaTMadqIm4-54" target="STgfukZN8vqaTMadqIm4-42">
          <mxGeometry width="50" height="50" relative="1" as="geometry">
            <mxPoint x="1252" y="101" as="sourcePoint" />
            <mxPoint x="1410" y="-10" as="targetPoint" />
          </mxGeometry>
        </mxCell>
        <mxCell id="SNf042CvBTTP_pjoU64A-28" value="" style="shape=flexArrow;endArrow=classic;html=1;rounded=0;exitX=0.262;exitY=1.031;exitDx=0;exitDy=0;exitPerimeter=0;entryX=0.5;entryY=0.5;entryDx=0;entryDy=0;entryPerimeter=0;" edge="1" parent="1" source="STgfukZN8vqaTMadqIm4-26" target="STgfukZN8vqaTMadqIm4-1">
          <mxGeometry width="50" height="50" relative="1" as="geometry">
            <mxPoint x="670" y="310" as="sourcePoint" />
            <mxPoint x="720" y="260" as="targetPoint" />
          </mxGeometry>
        </mxCell>
      </root>
    </mxGraphModel>
  </diagram>
</mxfile>
